<?xml version="1.0" encoding="UTF-8"?>
<svg id="Ebene_1" xmlns="http://www.w3.org/2000/svg" version="1.1" viewBox="0 0 595.3 841.9">
  <!-- Generator: Adobe Illustrator 29.1.0, SVG Export Plug-In . SVG Version: 2.1.0 Build 142)  -->
  <defs>
    <style>
      .st0 {
        fill: #fefefe;
      }
    </style>
  </defs>
  <path class="st0" d="M288.6,100.8c3.3,15.3,6.4,30.7,10.9,45.6,11.2,2.7,21.4,8.3,32,12.6l39.7-24.3,49,48.8-.2,1.9c-7.9,13.1-16.7,25.8-23.8,39.4,5.3,10.1,9.8,20.6,13.3,31.5l45.6,10.8v69.3s-1.1,1-1.1,1l-42.6,10c-1,.2-1.6.6-2.2,1.4-1.3,1.8-4.9,13.5-6.2,16.8-2,5-4.7,9.7-6.7,14.7l24,38.7.3,1.6-48.2,48.4-3.3-1-37.9-23c-10.3,5.2-20.9,9.8-32,13l-10.9,45.6-69.5.4-11.7-46.2c-11-2.9-21.2-8-31.5-12.7l-40.4,24.2-49.1-48.9,23.8-38.9c1-2.9-3.6-9.7-5-12.9-2.9-6.8-5.3-13.8-7.8-20.7l-45.8-11.1v-69.3c-.1,0,44-10.7,44-10.7,3.9-1.6,4.8-9.5,6.5-13.7,2.6-6.6,6.1-12.9,8.4-19.5l-24.2-39.8,48.8-49h1.4s37.7,23.6,37.7,23.6c3.8,1.4,10.5-3.7,14.4-5.3,6.3-2.7,13.1-4.5,19.2-7.5l10.2-42.4,1.4-2.9,69.8.5ZM248.2,201c-70.6,3.7-116.2,76.7-87.6,142,31.5,72,130.4,81.5,175.5,17.3,48.2-68.6-4.5-163.6-87.9-159.2Z"/>
</svg>