<?xml version="1.0" encoding="UTF-8"?>
<svg id="Layer_1" data-name="Layer 1" xmlns="http://www.w3.org/2000/svg" viewBox="0 0 12 12">
  <path d="M12,1.99s0-.03,0-.05c0-.02,0-.03,0-.05,0-.02,0-.03,0-.05,0-.02,0-.03,0-.05,0-.02,0-.03,0-.05,0-.02,0-.03,0-.05,0-.02,0-.03-.01-.05,0-.02,0-.03-.01-.05,0-.02,0-.03-.01-.05,0-.02,0-.03-.01-.05,0-.02-.01-.03-.02-.05,0-.02-.01-.03-.02-.05,0-.02-.01-.03-.02-.05,0-.02-.01-.03-.02-.05,0-.02-.01-.03-.02-.05,0-.02-.01-.03-.02-.05,0-.01-.02-.03-.02-.04,0-.01-.02-.03-.02-.04,0-.01-.02-.03-.03-.04,0-.01-.02-.03-.03-.04,0-.01-.02-.03-.03-.04,0-.01-.02-.03-.03-.04,0-.01-.02-.03-.03-.04-.01-.01-.02-.03-.03-.04-.01-.01-.02-.03-.03-.04-.01-.01-.02-.03-.03-.04-.01-.01-.02-.03-.03-.04-.01-.01-.02-.02-.04-.04-.01-.01-.02-.02-.04-.04-.01-.01-.02-.02-.04-.04-.47-.44-1.1-.66-1.75-.66-.85.02-1.52.32-2.1.9-.18.18-.35.38-.53.57l-.77.81-2.79,2.95-2,2.11-.54.57c-.11.12-.24.24-.34.36-.08.09-.15.19-.21.29C.1,8.93,0,9.37,0,9.78c0,.02,0,.04,0,.06,0,.02,0,.04,0,.06,0,.02,0,.04,0,.06,0,.02,0,.04,0,.06,0,.02,0,.04,0,.06,0,.02,0,.04,0,.06,0,.02,0,.04.01.06,0,.02,0,.04.01.05,0,.02,0,.04.01.05,0,.02,0,.04.02.05,0,.02.01.04.02.05,0,.02.01.04.02.05,0,.02.01.04.02.05,0,.02.01.04.02.05,0,.02.01.03.02.05,0,.02.02.03.02.05,0,.02.02.03.02.05,0,.02.02.03.03.05,0,.02.02.03.03.05,0,.02.02.03.03.05,0,.02.02.03.03.05.01.02.02.03.03.05.01.02.02.03.03.05.01.02.02.03.03.05.01.02.02.03.03.05.01.02.02.03.04.04.01.01.02.03.04.04.01.01.03.03.04.04.01.01.03.03.04.04.01.01.03.03.04.04.01.01.03.03.04.04.01.01.03.03.04.04.01.01.03.02.04.04.01.01.03.02.04.04.01.01.03.02.04.03.01.01.03.02.04.03.01.01.03.02.04.03.02.01.03.02.05.03.02.01.03.02.05.03.02,0,.03.02.05.03.02,0,.03.02.05.03.02,0,.03.02.05.03.02,0,.03.02.05.03.02,0,.03.02.05.02.02,0,.03.02.05.02.02,0,.03.02.05.02.02,0,.03.01.05.02.02,0,.03.01.05.02.02,0,.03.01.05.02.02,0,.04.01.05.02.02,0,.04.01.05.02.02,0,.04.01.05.02.02,0,.04,0,.05.01.02,0,.04,0,.05.01.02,0,.04,0,.05.01.02,0,.04,0,.06.01.02,0,.04,0,.06,0,.02,0,.04,0,.06,0,.02,0,.04,0,.06,0,.02,0,.04,0,.06,0,.02,0,.04,0,.06,0,.02,0,.04,0,.06,0,.02,0,.04,0,.06,0,.02,0,.04,0,.06,0,.02,0,.04,0,.06,0,.02,0,.04,0,.06,0,.02,0,.04,0,.06,0,.02,0,.04,0,.06,0,.02,0,.04,0,.06,0,.02,0,.04,0,.06,0,.02,0,.04,0,.06,0,.02,0,.04,0,.06-.01.02,0,.04,0,.06-.01.02,0,.04,0,.06-.01.02,0,.04,0,.06-.01.02,0,.04-.01.06-.02.02,0,.04-.01.06-.02.02,0,.04-.01.06-.02.02,0,.04-.01.06-.02.02,0,.04-.01.06-.02.02,0,.04-.01.06-.02.02,0,.04-.02.05-.02.02,0,.04-.02.05-.02.02,0,.04-.02.05-.03.02,0,.04-.02.05-.03.02,0,.03-.02.05-.03.02,0,.03-.02.05-.03.02-.01.03-.02.05-.03.02-.01.03-.02.05-.03.02-.01.03-.02.05-.03.02-.01.03-.02.05-.03.02-.01.03-.02.05-.04.02-.01.03-.02.05-.04.02-.01.03-.02.05-.04.01-.01.03-.03.04-.04.01-.01.03-.03.04-.04.21-.2.4-.41.59-.62l.65-.68,3.17-3.41,1.92-2.04c.24-.25.48-.5.72-.76.15-.16.31-.32.43-.5.26-.37.41-.78.41-1.23,0-.02,0-.03,0-.05,0-.02,0-.03,0-.05ZM11.6,2.15s0,.05,0,.07c0,.02,0,.05,0,.07,0,.02,0,.05,0,.07,0,.02,0,.05-.01.07,0,.02,0,.05-.02.07,0,.02-.01.05-.02.07,0,.02-.01.05-.02.07,0,.02-.02.04-.02.07,0,.02-.02.04-.03.07,0,.02-.02.04-.03.06-.01.02-.02.04-.03.06-.01.02-.02.04-.03.06-.01.02-.02.04-.04.06-.01.02-.03.04-.04.06-.11.16-.24.29-.37.43l-.45.48-1.67,1.77-2.52,2.68c-.76.83-1.53,1.65-2.3,2.47-.44.46-.87.68-1.53.71,0,0-.01,0-.02,0-.02,0-.03,0-.05,0-.02,0-.03,0-.05,0s-.03,0-.05,0c-.02,0-.03,0-.05,0-.02,0-.03,0-.05,0-.02,0-.03,0-.05,0-.02,0-.03,0-.05,0-.02,0-.03,0-.05,0-.02,0-.03,0-.05,0-.02,0-.03,0-.05,0-.02,0-.03,0-.05,0-.02,0-.03,0-.05,0-.01,0-.03,0-.04-.01-.01,0-.03,0-.04-.01-.01,0-.03,0-.04-.01-.01,0-.03,0-.04-.01-.01,0-.03,0-.04-.01-.01,0-.03-.01-.04-.02-.01,0-.03-.01-.04-.02-.01,0-.03-.01-.04-.02-.01,0-.03-.01-.04-.02-.01,0-.03-.01-.04-.02-.01,0-.03-.01-.04-.02-.01,0-.03-.01-.04-.02-.01,0-.03-.01-.04-.02-.01,0-.03-.02-.04-.02-.01,0-.03-.02-.04-.02-.01,0-.03-.02-.04-.03-.01,0-.02-.02-.04-.03-.01,0-.02-.02-.04-.03-.01,0-.02-.02-.04-.03-.01,0-.02-.02-.04-.03-.41-.35-.66-.82-.68-1.35-.02-.39.1-.79.32-1.11.11-.17.25-.31.39-.45.16-.18.33-.35.49-.53l1.71-1.8L7.85,1.1c.3-.31.71-.56,1.15-.66.17-.04.35-.06.53-.07.54-.02,1.08.14,1.48.48.34.29.56.72.59,1.16,0,.02,0,.05,0,.07s0,.05,0,.07Z"/>
  <path d="M11.56,1.91s0-.03,0-.04c0-.01,0-.03,0-.04,0-.01,0-.03,0-.04,0-.01,0-.03,0-.04,0-.01,0-.03-.01-.04,0-.01,0-.03-.01-.04,0-.01,0-.03-.01-.04,0-.01,0-.03-.01-.04,0-.01,0-.03-.01-.04,0-.01,0-.03-.02-.04,0-.01-.01-.03-.02-.04,0-.01-.01-.03-.02-.04,0-.01-.01-.03-.02-.04,0-.01-.01-.02-.02-.04,0-.01-.01-.02-.02-.04,0-.01-.01-.02-.02-.04,0-.01-.01-.02-.02-.04,0-.01-.02-.02-.02-.04,0-.01-.02-.02-.02-.03,0-.01-.02-.02-.02-.03,0-.01-.02-.02-.03-.03,0-.01-.02-.02-.03-.03,0-.01-.02-.02-.03-.03,0-.01-.02-.02-.03-.03,0-.01-.02-.02-.03-.03,0-.01-.02-.02-.03-.03,0,0-.02-.02-.03-.03-.01,0-.02-.02-.03-.03-.01,0-.02-.02-.03-.03-.01,0-.02-.02-.03-.03-.01,0-.02-.02-.03-.03-.41-.32-.95-.46-1.47-.42-.51.05-.92.18-1.33.49-.17.13-.3.27-.43.42-.09.1-.19.21-.29.31l-1.33,1.41-3.45,3.64-1.06,1.12c-.23.24-.47.48-.69.74-.33.38-.5.9-.45,1.38,0,.02,0,.03,0,.05,0,.02,0,.03,0,.05,0,.02,0,.03,0,.05,0,.02,0,.03,0,.05,0,.02,0,.03.01.05,0,.02,0,.03.01.05,0,.02,0,.03.01.05,0,.02,0,.03.01.05,0,.02,0,.03.02.05,0,.01.01.03.02.04,0,.01.01.03.02.04,0,.01.01.03.02.04,0,.01.01.03.02.04,0,.01.01.03.02.04,0,.01.01.03.02.04,0,.01.02.03.02.04,0,.01.02.03.02.04,0,.01.02.03.03.04,0,.01.02.03.03.04,0,.01.02.03.03.04,0,.01.02.03.03.04,0,.01.02.03.03.04.01.01.02.03.03.04.01.01.02.02.03.04.01.01.02.02.03.04.01.01.02.02.03.04.01.01.02.02.03.03.01.01.02.02.04.03.01.01.02.02.04.03.01.01.02.02.04.03.01.01.03.02.04.03.01.01.03.02.04.03.38.3.88.42,1.37.38.4-.04.77-.15,1.09-.39.17-.13.32-.29.47-.45.16-.17.31-.34.47-.51.7-.74,1.4-1.48,2.09-2.23l2.88-3.06,1.02-1.09c.18-.19.36-.38.53-.57.33-.38.51-.84.46-1.33,0-.01,0-.03,0-.04ZM10.81,3.05c-.15.18-.32.34-.48.51l-.56.59-2.91,3.08-2.28,2.44-.67.72c-.16.17-.32.36-.5.51-.24.19-.56.29-.87.32-.41.03-.81-.05-1.13-.3,0,0-.02-.02-.03-.02,0,0-.02-.02-.03-.02,0,0-.02-.02-.03-.02,0,0-.02-.02-.03-.03,0,0-.02-.02-.03-.03,0,0-.02-.02-.03-.03,0,0-.02-.02-.03-.03,0,0-.02-.02-.02-.03,0,0-.02-.02-.02-.03,0,0-.02-.02-.02-.03,0,0-.02-.02-.02-.03,0,0-.01-.02-.02-.03,0-.01-.01-.02-.02-.03s-.01-.02-.02-.03c0-.01-.01-.02-.02-.03,0-.01-.01-.02-.02-.03,0-.01-.01-.02-.02-.03,0-.01-.01-.02-.02-.03,0-.01-.01-.02-.02-.03,0-.01-.01-.02-.02-.03,0-.01,0-.02-.01-.03,0-.01,0-.02-.01-.03,0-.01,0-.02-.01-.03,0-.01,0-.02-.01-.03,0-.01,0-.02-.01-.03,0-.01,0-.02,0-.04,0-.01,0-.02,0-.04,0-.01,0-.02,0-.04,0-.01,0-.02,0-.04,0-.01,0-.02,0-.04,0-.01,0-.02,0-.04,0-.01,0-.02,0-.04-.05-.44.09-.85.38-1.18.13-.15.28-.3.41-.45l.67-.71,3.16-3.33,2.05-2.17c.15-.16.31-.33.46-.49.14-.15.28-.31.45-.44.3-.23.72-.34,1.09-.38,0,0,0,0,0,0,.4-.04.84.09,1.16.33.29.22.48.53.51.88.04.39-.12.78-.38,1.08Z"/>
  <path d="M9.88,3.2s0-.02,0-.03c0-.01,0-.02,0-.03,0-.01,0-.02,0-.03,0-.01,0-.02,0-.03,0-.01,0-.02,0-.03,0-.01,0-.02,0-.03,0-.01,0-.02,0-.03,0-.01,0-.02,0-.03,0-.01,0-.02,0-.03,0-.01,0-.02,0-.03,0-.01,0-.02,0-.03,0-.01,0-.02-.01-.03,0-.01,0-.02-.01-.03,0-.01,0-.02-.01-.03,0-.01,0-.02-.01-.03,0,0,0-.02-.01-.03,0,0,0-.02-.01-.03,0,0-.01-.02-.02-.03,0,0-.01-.02-.02-.03,0,0-.01-.02-.02-.03,0,0-.01-.02-.02-.03,0,0-.01-.02-.02-.03,0,0-.01-.02-.02-.03,0,0-.01-.02-.02-.03,0,0-.01-.02-.02-.03,0,0-.01-.02-.02-.03,0,0-.01-.02-.02-.03,0,0-.01-.02-.02-.02,0,0-.02-.02-.02-.02,0,0-.02-.02-.02-.02,0,0-.02-.02-.02-.02,0,0-.02-.02-.02-.02,0,0-.02-.01-.03-.02,0,0-.02-.01-.03-.02,0,0-.02-.01-.03-.02-.23-.17-.55-.28-.84-.27-.43.02-.74.14-1.03.44-.13.13-.24.27-.37.4l-1.74,1.84-1.02,1.07c-.13.14-.27.28-.4.43-.11.11-.22.23-.3.36-.13.2-.19.47-.18.7.01.33.16.66.42.88,0,0,.02.01.02.02,0,0,.02.01.02.02,0,0,.02.01.03.02,0,0,.02.01.03.02,0,0,.02.01.03.02,0,0,.02.01.03.02,0,0,.02.01.03.02,0,0,.02.01.03.02,0,0,.02.01.03.02,0,0,.02.01.03.02,0,0,.02,0,.03.01,0,0,.02,0,.03.01,0,0,.02,0,.03.01,0,0,.02,0,.03.01.01,0,.02,0,.03.01.01,0,.02,0,.03.01.01,0,.02,0,.03.01.01,0,.02,0,.03,0,.01,0,.02,0,.03,0,.01,0,.02,0,.03,0,.01,0,.02,0,.03,0,.01,0,.02,0,.03,0,.01,0,.02,0,.03,0,.01,0,.02,0,.03,0,.01,0,.02,0,.03,0,.01,0,.02,0,.03,0,.01,0,.02,0,.03,0,.01,0,.02,0,.03,0,.01,0,.02,0,.03,0,.01,0,.02,0,.03,0,.01,0,.02,0,.03,0,.01,0,.02,0,.03,0,.3-.03.56-.12.8-.29.26-.19.48-.44.7-.67l1.17-1.23,1.38-1.45c.17-.18.34-.35.5-.53.06-.07.13-.13.18-.2,0,0,.01-.02.02-.02,0,0,.01-.02.02-.02,0,0,.01-.02.02-.02,0,0,.01-.02.02-.03,0,0,.01-.02.02-.03,0,0,.01-.02.02-.03,0,0,.01-.02.02-.03,0,0,.01-.02.02-.03,0,0,0-.02.01-.03,0,0,0-.02.01-.03,0,0,0-.02.01-.03,0,0,0-.02.01-.03,0,0,0-.02.01-.03,0,0,0-.02.01-.03,0,0,0-.02.01-.03,0,0,0-.02,0-.03s0-.02,0-.03c0,0,0-.02,0-.03,0,0,0-.02,0-.03,0,0,0-.02,0-.03,0-.01,0-.02,0-.03,0-.01,0-.02,0-.03,0-.01,0-.02,0-.03,0-.01,0-.02,0-.03,0-.01,0-.02,0-.03,0-.01,0-.02,0-.03,0-.01,0-.02,0-.03,0-.01,0-.02,0-.03,0-.01,0-.02,0-.03ZM9.3,3.76c-.07.08-.14.15-.22.23-.14.15-.29.3-.43.45-.34.37-.68.73-1.02,1.09l-.84.87c-.23.24-.47.48-.69.72-.11.12-.23.24-.34.36-.1.11-.2.22-.32.31-.17.13-.35.19-.57.21-.25,0-.48-.06-.67-.22-.01,0-.02-.02-.03-.03-.01-.01-.02-.02-.03-.03-.01-.01-.02-.02-.03-.03-.01-.01-.02-.02-.03-.04,0-.01-.02-.02-.03-.04,0-.01-.02-.03-.03-.04,0-.01-.02-.03-.02-.04,0-.01-.01-.03-.02-.04,0-.01-.01-.03-.02-.04,0-.01-.01-.03-.02-.04,0-.01-.01-.03-.02-.04,0-.01,0-.03-.01-.04,0-.01,0-.03-.01-.04,0-.01,0-.03,0-.04,0-.01,0-.03,0-.04,0-.01,0-.03,0-.04,0-.18.03-.36.13-.51.06-.09.14-.17.21-.24.09-.1.19-.2.29-.31l.64-.68,2.61-2.76c.21-.22.42-.34.74-.36.01,0,.03,0,.04,0,.01,0,.03,0,.04,0,.01,0,.03,0,.04,0,.01,0,.03,0,.04,0,.01,0,.03,0,.04,0,.01,0,.03,0,.04,0,.01,0,.03,0,.04,0,.01,0,.03,0,.04.01.01,0,.03,0,.04.01.01,0,.03,0,.04.01.01,0,.03.01.04.02.01,0,.03.01.04.02.01,0,.02.01.04.02.01,0,.02.01.04.02.01,0,.02.01.03.02.01,0,.02.02.03.02.2.14.33.37.36.6.03.24-.03.46-.19.65Z"/>
</svg>