<svg xmlns="http://www.w3.org/2000/svg" viewBox="0 0 228 85"><path d="M163.4,62.19l0-36.54h6.41l0,36.53Zm-148.1.13,0-15.92c0-2.6-.7-4.15-3-4.15C9,42.25,6.42,46,6.43,50.31v12H0L0,25.79H6.41V36.45a24.34,24.34,0,0,1-.45,5l.1,0a8.77,8.77,0,0,1,8.15-4.66c5.61,0,7.41,3.6,7.42,8V62.31Zm134-28.2a3.88,3.88,0,1,1,4-3.9A4,4,0,0,1,149.26,34.12ZM90.45,62.75c-5.5,0-7.2-2-7.21-7.8V42.34h-4.3v-5h4.26V29.73L89.57,28v9.36h6.06v5h-6V53.24c0,3.21.75,4.11,3,4.1a12.37,12.37,0,0,0,3.11-.4V62.1A22.12,22.12,0,0,1,90.45,62.75ZM69,62.77c-5.51,0-7.21-2-7.22-7.8V42.36h-4.3v-5h4.26V29.74l6.4-1.7V37.4h6.06v5H68.13V53.26c0,3.2.75,4.1,3,4.1A12.37,12.37,0,0,0,74.2,57v5.16A22.1,22.1,0,0,1,69,62.77Zm77.09-.57,0-24.87h6.41l0,24.88Zm-14.46,0h-6.95l-3.62-11.06a56,56,0,0,1-1.4-5.55h0c-.5,2.3-1,4.21-1.7,6.26l-3.14,10.36h-6.61l-7.63-24.87h7l2.66,9.41c.65,2.45,1.35,4.95,2,7.51h0A55.83,55.83,0,0,1,114,47.07l3-9.72h6.15l3.06,9.41a68.61,68.61,0,0,1,2,7.5h.1a69.51,69.51,0,0,1,1.75-7.21l2.79-9.71h6.56Zm-85.41.07a27.32,27.32,0,0,1,.3-4.41l-.05-.05a9,9,0,0,1-8.45,5c-5.61,0-7.41-3.6-7.42-8V37.43h6.35l0,15.92c0,2.6.7,4.15,3.1,4.15,3.26,0,5.76-3.71,5.75-8.06v-12h6.41l0,24.87Z" style="fill:#7a7c81"/><path d="M175.23,83.85a10.54,10.54,0,0,1,.15-1.84h0a3.21,3.21,0,0,1-3,2c-2.22,0-3.34-1.62-3.34-4.27,0-3.17,1.83-5.08,4.69-5.08.49,0,1,0,1.53.09V70.55h1.64v13.3Zm-74.06,0V78c0-1.27-.35-2-1.55-2-1.49,0-2.57,1.51-2.57,3.52v4.35H95.41V70.55h1.64v4.28a8.53,8.53,0,0,1-.16,1.81l0,0a3.29,3.29,0,0,1,3.16-2c2.07,0,2.73,1.3,2.73,2.9v6.34Zm-25.63,0V70.55h1.64v13.3ZM62.49,72.9a1,1,0,0,1-1-1,1,1,0,0,1,1-1,1,1,0,0,1,1,1A1,1,0,0,1,62.49,72.9Zm-3.5,0a1,1,0,0,1-1-1,1,1,0,0,1,1-1,1,1,0,0,1,1,1A1,1,0,0,1,59,72.9Zm129.68.4a1.07,1.07,0,1,1,1.09-1.07A1.09,1.09,0,0,1,188.67,73.3Zm-59.74,0a1.07,1.07,0,1,1,1.1-1.07A1.1,1.1,0,0,1,128.93,73.3Zm-46.83,0a1.07,1.07,0,1,1,1.1-1.07A1.1,1.1,0,0,1,82.1,73.3ZM143.86,84c-1.86,0-2.42-.77-2.42-2.72V76.07h-1.86V74.8h1.86V71.86l1.64-.45V74.8h2.53v1.27h-2.53V80.7c0,1.5.27,1.9,1.29,1.9a5.38,5.38,0,0,0,1.24-.17v1.39A8.79,8.79,0,0,1,143.86,84Zm-7.49,0c-1.86,0-2.42-.77-2.42-2.72V76.07h-1.86V74.8H134V71.86l1.64-.45V74.8h2.53v1.27h-2.53V80.7c0,1.5.27,1.9,1.29,1.9a5.38,5.38,0,0,0,1.24-.17v1.39A8.87,8.87,0,0,1,136.37,84ZM52.43,84C50.57,84,50,83.23,50,81.28V76.07H48.14V74.8H50V71.86l1.64-.45V74.8h2.53v1.27H51.64V80.7c0,1.5.27,1.9,1.3,1.9a5.37,5.37,0,0,0,1.23-.17v1.39A8.76,8.76,0,0,1,52.43,84Zm132.68-7.76c-1.91-.33-2.82,1.07-2.82,4v3.64h-1.64v-9h1.59A11.86,11.86,0,0,1,182,77h0a2.86,2.86,0,0,1,3.12-2.32Zm-112.31,0c-1.91-.33-2.82,1.07-2.82,4v3.64H68.34v-9h1.59A11.86,11.86,0,0,1,69.72,77h0a2.86,2.86,0,0,1,3.12-2.32Zm126.46,7.61V78c0-1.27-.35-2-1.55-2-1.49,0-2.57,1.51-2.57,3.52v4.35H193.5v-9h1.59a11,11,0,0,1-.15,1.89l0,0a3.31,3.31,0,0,1,3.19-2.1c2.07,0,2.73,1.3,2.73,2.9v6.34Zm-34.95,0V78c0-1.27-.34-2-1.54-2-1.5,0-2.57,1.51-2.57,3.52v4.35h-1.64v-9h1.58a12.11,12.11,0,0,1-.14,1.89l0,0a3.31,3.31,0,0,1,3.19-2.1c2.08,0,2.74,1.3,2.74,2.9v6.34Zm-41.67,0V78c0-1.26-.29-2.06-1.47-2.06s-2.54,1.37-2.54,3.56v4.31H117V78c0-1.13-.24-2-1.48-2S113,77.46,113,79.54v4.31h-1.64v-9H113a11.19,11.19,0,0,1-.15,1.89l0,0a3.32,3.32,0,0,1,3.15-2.1,2.28,2.28,0,0,1,2.5,2.06,3.38,3.38,0,0,1,3.1-2.06c1.71,0,2.69.93,2.69,3v6.27Zm-78.18,0a11.28,11.28,0,0,1,.09-1.8h0a3.22,3.22,0,0,1-3.08,2,2.21,2.21,0,0,1-2.51-2.24c0-2,2-3.25,5.45-3.25v-.67c0-1.26-.49-1.93-2-1.93a5.71,5.71,0,0,0-2.73.74l-.17-1.4a8.42,8.42,0,0,1,3.17-.66c2.61,0,3.36,1.22,3.36,3v3.61c0,.85,0,1.82,0,2.6Zm-10.28,0V78c0-1.27-.35-2-1.55-2-1.5,0-2.57,1.51-2.57,3.52v4.35H28.42v-9H30a11,11,0,0,1-.14,1.89l0,0a3.31,3.31,0,0,1,3.19-2.1c2.08,0,2.74,1.3,2.74,2.9v6.34Zm121.2-4.63h-5.92c-.07,2.43.93,3.47,2.86,3.47a6.39,6.39,0,0,0,2.64-.57l.15,1.33a8,8,0,0,1-3.06.57c-2.79,0-4.29-1.46-4.29-4.65,0-2.71,1.48-4.74,4.05-4.74s3.63,1.73,3.63,3.81A6.14,6.14,0,0,1,155.38,79.22ZM89.92,84c-2.17,0-4-1-4-4.35,0-2.92,1.49-5,4.52-5a7.71,7.71,0,0,1,2.06.29l-.18,1.44A5.46,5.46,0,0,0,90.4,76c-1.83,0-2.72,1.35-2.72,3.41,0,1.77.58,3.17,2.59,3.17a4.79,4.79,0,0,0,2.15-.49l.13,1.42A7.46,7.46,0,0,1,89.92,84Zm97.93-.13v-9h1.64v9Zm-59.74,0v-9h1.64v9Zm-46.83,0v-9h1.64v9Zm-18.36,0A13.49,13.49,0,0,1,63.07,82l0,0A3.3,3.3,0,0,1,59.84,84c-2.07,0-2.71-1.3-2.71-2.9V74.8h1.62v5.85c0,1.27.37,2,1.55,2,1.49,0,2.59-1.51,2.59-3.52V74.8h1.62v9Zm88.82-8a2.29,2.29,0,0,0-2.21,2.23h4.23A2,2,0,0,0,151.74,75.83Zm23.44.33a6.49,6.49,0,0,0-1.6-.2c-1.74,0-2.88,1-2.88,3.65,0,2,.63,3.06,2,3.06,1.64,0,2.48-1.91,2.48-3.5ZM44.37,79.68c-3.16,0-3.85,1-3.85,1.79a1.24,1.24,0,0,0,1.39,1.25,2.72,2.72,0,0,0,2.46-2.88Z" style="fill:#3a96db"/><path d="M181.5,31.61V26.12A40.41,40.41,0,0,0,208.13,0h5.53A45.69,45.69,0,0,1,181.5,31.61" style="fill:#3a96db"/><path d="M228,12.81V23.89a47.21,47.21,0,0,0-25.95,38.45H191.9A57.34,57.34,0,0,1,228,12.81" style="fill:#3a96db"/></svg>